<svg width="26" height="30" viewBox="0 0 26 30" fill="none" xmlns="http://www.w3.org/2000/svg">
<path d="M25 21.1625V8.83753C24.999 8.6595 24.9512 8.48487 24.8612 8.33125C24.7712 8.17763 24.6423 8.05045 24.4875 7.96253L13.4875 1.77503C13.3393 1.68946 13.1711 1.64441 13 1.64441C12.8289 1.64441 12.6607 1.68946 12.5125 1.77503L1.5125 7.96253C1.35769 8.05045 1.22879 8.17763 1.13882 8.33125C1.04884 8.48487 1.00096 8.6595 1 8.83753V21.1625C1.00096 21.3406 1.04884 21.5152 1.13882 21.6688C1.22879 21.8224 1.35769 21.9496 1.5125 22.0375L12.5125 28.225C12.6607 28.3106 12.8289 28.3557 13 28.3557C13.1711 28.3557 13.3393 28.3106 13.4875 28.225L24.4875 22.0375C24.6423 21.9496 24.7712 21.8224 24.8612 21.6688C24.9512 21.5152 24.999 21.3406 25 21.1625Z" stroke="white" stroke-width="2" stroke-linecap="round" stroke-linejoin="round"/>
<path d="M19.125 18.0626V11.5626L7 4.87512" stroke="white" stroke-width="2" stroke-linecap="round" stroke-linejoin="round"/>
<path d="M24.8625 8.32507L13.1125 15.0001L1.13751 8.32507" stroke="white" stroke-width="2" stroke-linecap="round" stroke-linejoin="round"/>
<path d="M13.1125 15.0001L13 28.3501" stroke="white" stroke-width="2" stroke-linecap="round" stroke-linejoin="round"/>
</svg>
